<svg width="33" height="30" viewBox="0 0 33 30" fill="none" xmlns="http://www.w3.org/2000/svg">
<path d="M11.6875 0C10.2162 0 8.93475 0.829016 8.12075 1.96073C7.30675 3.09245 6.875 4.55413 6.875 6.13581C6.875 7.71748 7.30675 9.18053 8.12075 10.3122C8.93475 11.444 10.2162 12.2716 11.6875 12.2716C13.1588 12.2716 14.4402 11.4426 15.2542 10.3109C16.0683 9.17917 16.5 7.71748 16.5 6.13581C16.5 4.55413 16.0683 3.09108 15.2542 1.95937C14.4402 0.827652 13.1588 0 11.6875 0ZM16.5 6.13581C16.5 7.71748 16.9317 9.18053 17.7458 10.3122C18.5597 11.444 19.8426 12.2716 21.3125 12.2716C22.7838 12.2716 24.0653 11.4426 24.8792 10.3109C25.6933 9.17917 26.125 7.71748 26.125 6.13581C26.125 4.55413 25.6933 3.09108 24.8792 1.95937C24.0653 0.827652 22.7838 0 21.3125 0C19.8412 0 18.5597 0.829016 17.7458 1.96073C16.9317 3.09245 16.5 4.55413 16.5 6.13581ZM11.6875 2.72702C12.1165 2.72702 12.5895 2.93973 13.0213 3.53695C13.4475 4.13281 13.75 5.08181 13.75 6.13581C13.75 7.1898 13.4475 8.14017 13.0213 8.73466C12.5895 9.33188 12.1165 9.54459 11.6875 9.54459C11.2585 9.54459 10.7855 9.33188 10.3537 8.73466C9.9275 8.13881 9.625 7.1898 9.625 6.13581C9.625 5.08181 9.9275 4.13144 10.3537 3.53695C10.7855 2.93973 11.2585 2.72702 11.6875 2.72702ZM21.3125 2.72702C21.7415 2.72702 22.2145 2.93973 22.6462 3.53695C23.0725 4.13281 23.375 5.08181 23.375 6.13581C23.375 7.1898 23.0725 8.14017 22.6462 8.73466C22.2145 9.33188 21.7415 9.54459 21.3125 9.54459C20.8835 9.54459 20.4105 9.33188 19.9788 8.73466C19.5525 8.13881 19.25 7.1898 19.25 6.13581C19.25 5.08181 19.5525 4.13144 19.9788 3.53695C20.4105 2.93973 20.8835 2.72702 21.3125 2.72702ZM4.8125 9.54459C3.34125 9.54459 2.05975 10.3736 1.24575 11.5053C0.43175 12.637 0 14.0987 0 15.6804C0 17.2621 0.43175 18.7251 1.24575 19.8568C2.05975 20.9885 3.34125 21.8162 4.8125 21.8162C6.28375 21.8162 7.56525 20.9872 8.37925 19.8555C9.19325 18.7238 9.625 17.2621 9.625 15.6804C9.625 14.0987 9.19325 12.6357 8.37925 11.504C7.56525 10.3722 6.28375 9.54459 4.8125 9.54459ZM28.1875 9.54459C26.7162 9.54459 25.4347 10.3736 24.6208 11.5053C23.8067 12.637 23.375 14.0987 23.375 15.6804C23.375 17.2621 23.8067 18.7251 24.6208 19.8568C25.4347 20.9885 26.7162 21.8162 28.1875 21.8162C29.6588 21.8162 30.9403 20.9872 31.7542 19.8555C32.5682 18.7238 33 17.2621 33 15.6804C33 14.0987 32.5682 12.6357 31.7542 11.504C30.9403 10.3722 29.6588 9.54459 28.1875 9.54459ZM4.8125 12.2716C5.2415 12.2716 5.7145 12.4843 6.14625 13.0815C6.5725 13.6774 6.875 14.6264 6.875 15.6804C6.875 16.7344 6.5725 17.6848 6.14625 18.2792C5.7145 18.8765 5.2415 19.0892 4.8125 19.0892C4.3835 19.0892 3.9105 18.8765 3.47875 18.2792C3.0525 17.6848 2.75 16.7344 2.75 15.6804C2.75 14.6264 3.0525 13.676 3.47875 13.0815C3.9105 12.4843 4.3835 12.2716 4.8125 12.2716ZM28.1875 12.2716C28.6165 12.2716 29.0895 12.4843 29.5212 13.0815C29.9475 13.6774 30.25 14.6264 30.25 15.6804C30.25 16.7344 29.9475 17.6848 29.5212 18.2792C29.0895 18.8765 28.6165 19.0892 28.1875 19.0892C27.7585 19.0892 27.2855 18.8765 26.8538 18.2792C26.4275 17.6834 26.125 16.7344 26.125 15.6804C26.125 14.6264 26.4275 13.676 26.8538 13.0815C27.2855 12.4843 27.7585 12.2716 28.1875 12.2716ZM16.5 14.9986C14.6671 14.9986 13.3884 16.1781 12.76 17.2143C12.1357 18.2506 11.7507 19.1124 11.385 19.4723C11.1746 19.6864 9.84775 20.1813 8.4645 20.8808C7.77288 21.2313 7.07575 21.6989 6.48862 22.4148C5.89737 23.1306 5.49863 24.1192 5.49863 25.2277C5.49863 27.8457 7.67112 30 10.3111 30C11.5019 30 12.7449 29.6182 13.9618 29.2773C15.1841 28.9283 16.5 28.6338 16.5 28.6338C16.5 28.6338 17.8159 28.9283 19.0355 29.2746C20.2537 29.6155 21.4967 29.9973 22.6875 29.9973C25.3275 29.9973 27.5 27.8429 27.5 25.225C27.5 24.1424 27.0971 23.1524 26.51 22.457C25.9256 21.7576 25.2216 21.3253 24.5355 20.964C23.1605 20.2413 21.8089 19.6687 21.6136 19.4723C21.2836 19.1492 20.9124 18.2588 20.2799 17.2171C19.6488 16.1713 18.3425 14.9986 16.5 14.9986ZM16.5 17.7257C17.4075 17.7257 17.5079 17.9438 17.9163 18.6201C18.3288 19.2951 18.6368 20.4418 19.635 21.4331C20.7694 22.5511 22.2021 22.7966 23.2458 23.3474C23.7682 23.6229 24.167 23.916 24.4062 24.1996C24.6441 24.4819 24.75 24.7396 24.75 25.2223C24.75 26.3676 23.8425 27.2675 22.6875 27.2675C22.2887 27.2675 21.0045 26.9675 19.8083 26.6267C18.612 26.2899 17.622 25.904 16.5 25.904C15.378 25.904 14.388 26.2899 13.1917 26.6267C11.9955 26.9675 10.7113 27.2675 10.3125 27.2675C9.1575 27.2675 8.25 26.3676 8.25 25.2223C8.25 24.6728 8.3655 24.3905 8.59375 24.1124C8.822 23.8342 9.24275 23.5615 9.75425 23.3038C10.7773 22.7857 12.2017 22.5811 13.3636 21.429C14.3715 20.4241 14.674 19.2405 15.0824 18.5724C15.4839 17.9043 15.5801 17.7202 16.4986 17.7202L16.5 17.7257Z" fill="#FF0D86"/>
</svg>
